<svg xmlns="http://www.w3.org/2000/svg" width="960pt" height="83.5pt" viewBox="0 0 960 83.5"><clipPath id="a"><path d="M0 0h960v83.5H0Z"/></clipPath><g clip-path="url(#a)"><path d="M376.1 25.5c0-3.5 5.6-3.7 7.8-3.7 5.4 0 11.4 1.7 16.5 4l-2.8-23.3C390.3 1 383.1 0 373.9 0c-17.3 0-26.2 10.1-26.2 22.6 0 18.3 25.7 28.9 25.7 35.8 0 3.2-5.6 3.2-8 3.2-6.4 0-13.1-2-19.2-4.8l3.4 24.2c7.6.8 16.9 2.4 22.8 2.4 22.9 0 29.5-12.6 29.5-24.2-.2-17.8-25.8-26.4-25.8-33.7M448 61.7c-8.8 0-16.8-8.1-16.8-19.9 0-11.8 8-20 16.8-20s16.8 8.2 16.8 20-8 19.9-16.8 19.9M448 0c-23 0-45.2 12-45.2 41.8 0 29.6 22.2 41.7 45.2 41.7 23 0 45.2-12 45.2-41.7C493.2 12 471 0 448 0M497.3 81.9h28.4V52.3h25.8V31.2h-26.2v-8.6h32.1v-21h-60.1ZM727.5 63.5c4.1-20.6 8.4-41.3 13-62h-23.3l-7.7 50.3h-.2l-10-50.3H671l-7.8 50.3h-.2l-5.6-33.4S655.6.5 632.9 1.5h-70.3v21.1h22.3v59.3h28.4V22.6h22.3c4.3 19.7 8.4 39.5 12.2 59.3h29.4l7.2-45.3h.2l8.8 45.3h11.3c18 1.7 22.8-18.4 22.8-18.4M960 22.6v-21h-64v80.3h64V60.8h-35.6v-8.5h29.2V31.2h-29.2v-8.6ZM0 81.4h28.4V51.7h25.8v-21H28v-8.6h32V1H0ZM185.3-.5c-23 0-45.2 12-45.2 41.8 0 29.6 22.2 41.7 45.2 41.7 23 0 45.2-12 45.2-41.7-.1-29.8-22.3-41.8-45.2-41.8m0 61.6c-8.8 0-16.8-8.1-16.8-19.9 0-11.8 8-20 16.8-20s16.8 8.2 16.8 20c0 11.9-8.1 19.9-16.8 19.9M137.2 26c0-15.4-9.1-24.9-26.7-24.9H65.2v80.3h27V21.5h9.4c4.8 0 8.2 1.3 8.6 7 .3 6.1-6 7.8-11 7.8-1.6 0-3.3-.2-4.7-.5l12.6 45.5h29.6c-4.8-11.4-9-23-12.7-34.5 8.8-4.5 13.2-12.2 13.2-20.8M280.1 45.2h-.2l-8-44.2h-37v80.4h22v-53h.2l10.5 53h23.5l10.8-53h.2v53h23.2V1h-36.9ZM767.6 42.9l6.8-19.9h.2l6.4 19.9Zm124-16.4c0-15.4-9.1-24.9-26.7-24.9h-45.3v72.5c-9.8-24.2-19-48.4-27.9-72.5H758c-10.8 26.7-22.3 54.2-34.3 80.3h30.9l6.5-18.5h25.7l6.3 18.5h53.5V22h9.4c4.8 0 8.2 1.3 8.6 7 .3 6.1-6 7.8-10.9 7.8-1.6 0-3.3-.2-4.7-.5l12.6 45.5h29.6c-4.8-11.4-9-23-12.7-34.4 8.8-4.5 13.1-12.2 13.1-20.9"/></g></svg>