<svg width="30" height="38" viewBox="0 0 8 14" fill="none" xmlns="http://www.w3.org/2000/svg">
<path d="M0.293031 0.636048C0.10556 0.823576 0.000244141 1.07788 0.000244141 1.34305C0.000244141 1.60821 0.10556 1.86252 0.293031 2.05005L5.24303 7.00005L0.293031 11.95C0.110873 12.1387 0.0100779 12.3913 0.0123563 12.6535C0.0146347 12.9156 0.119804 13.1665 0.305212 13.3519C0.49062 13.5373 0.741432 13.6424 1.00363 13.6447C1.26583 13.647 1.51843 13.5462 1.70703 13.364L7.36403 7.70705C7.5515 7.51952 7.65682 7.26521 7.65682 7.00005C7.65682 6.73488 7.5515 6.48058 7.36403 6.29305L1.70703 0.636048C1.5195 0.448577 1.26519 0.343262 1.00003 0.343262C0.734866 0.343262 0.480558 0.448577 0.293031 0.636048Z" fill="#18525F"/>
</svg>
