<svg width="30" height="38" viewBox="0 0 8 14" fill="none" xmlns="http://www.w3.org/2000/svg">
<path d="M7.70699 0.636048C7.89446 0.823576 7.99977 1.07788 7.99977 1.34305C7.99977 1.60821 7.89446 1.86252 7.70699 2.05005L2.75699 7.00005L7.70699 11.95C7.88914 12.1387 7.98994 12.3913 7.98766 12.6535C7.98538 12.9156 7.88021 13.1665 7.69481 13.3519C7.5094 13.5373 7.25858 13.6424 6.99639 13.6447C6.73419 13.647 6.48159 13.5462 6.29299 13.364L0.635987 7.70705C0.448516 7.51952 0.343201 7.26521 0.343201 7.00005C0.343201 6.73488 0.448516 6.48058 0.635987 6.29305L6.29299 0.636048C6.48052 0.448577 6.73482 0.343262 6.99999 0.343262C7.26515 0.343262 7.51946 0.448577 7.70699 0.636048Z" fill="#18525F"/>
</svg>
